<svg xmlns="http://www.w3.org/2000/svg" viewBox="0 0 1200 900" role="img" aria-labelledby="title desc">
  <title id="title">Carbon Zero — Make every tonne visible</title><desc id="desc">Promotional poster with a carbon intelligence graph and luminous circular motif.</desc>
  <defs><linearGradient id="fade" x1="0" y1="0" x2="0" y2="1"><stop offset="0" stop-color="#b7f34a" stop-opacity=".42"/><stop offset="1" stop-color="#b7f34a" stop-opacity="0"/></linearGradient><clipPath id="left"><rect width="710" height="900"/></clipPath></defs>
  <rect width="1200" height="900" fill="#f4f1e8"/><rect x="710" width="490" height="900" fill="#102c28"/>
  <g clip-path="url(#left)" fill="none" stroke="#102c28" opacity=".08"><circle cx="45" cy="810" r="185"/><circle cx="45" cy="810" r="270"/><circle cx="45" cy="810" r="355"/></g>
  <g transform="translate(74 66)"><path d="M29 0 0 16.5v33L29 66l29-16.5v-33L29 0Z" fill="#102c28"/><path d="M14 41c13-2 21-11 28-26 7 18 2 31-11 36-8 2-14-2-17-10Z" fill="#b7f34a"/><text x="78" y="43" fill="#102c28" font-family="Arial,Helvetica,sans-serif" font-size="31" font-weight="700" letter-spacing="-1">Carbon<tspan font-weight="400">Zero</tspan></text></g>
  <text x="74" y="230" fill="#102c28" font-family="Arial,Helvetica,sans-serif" font-size="18" font-weight="700" letter-spacing="4">OPERATIONAL CARBON INTELLIGENCE</text>
  <text x="70" y="352" fill="#102c28" font-family="Arial,Helvetica,sans-serif" font-size="93" font-weight="700" letter-spacing="-5">Make every</text><text x="70" y="452" fill="#7f9d8c" font-family="Georgia,serif" font-style="italic" font-size="104">tonne visible.</text>
  <text x="76" y="530" fill="#52675f" font-family="Arial,Helvetica,sans-serif" font-size="23">Measure clearly. Reduce meaningfully.</text>
  <g transform="translate(76 620)"><rect width="400" height="86" rx="3" fill="#102c28"/><text x="31" y="53" fill="#fff" font-family="Arial,Helvetica,sans-serif" font-size="20" font-weight="700">MEASURE YOUR FOOTPRINT</text><text x="356" y="55" fill="#b7f34a" font-family="Arial" font-size="27">↗</text></g>
  <g transform="translate(750 93)"><text fill="#b7f34a" font-family="Arial" font-size="17" font-weight="700" letter-spacing="3">LIVE EMISSIONS VIEW</text>
    <text y="126" fill="#fff" font-family="Arial" font-size="83" font-weight="700" letter-spacing="-4">8,420</text><text x="295" y="121" fill="#9db0a8" font-family="Arial" font-size="19">tCO₂e</text>
    <g transform="translate(0 197)"><path d="M0 30H390M0 130H390M0 230H390M0 330H390" stroke="#fff" opacity=".12"/><path d="M0 45C55 40 74 104 137 102s75-56 126 4 64 82 127 109v150H0Z" fill="url(#fade)"/><path d="M0 45C55 40 74 104 137 102s75-56 126 4 64 82 127 109" fill="none" stroke="#b7f34a" stroke-width="6"/><circle cx="390" cy="215" r="10" fill="#b7f34a" stroke="#102c28" stroke-width="5"/></g>
    <g transform="translate(0 608)"><rect width="390" height="92" rx="4" fill="#fff" opacity=".08"/><circle cx="38" cy="46" r="18" fill="#b7f34a"/><path d="m30 46 6 6 11-14" fill="none" stroke="#102c28" stroke-width="4"/><text x="72" y="36" fill="#9db0a8" font-family="Arial" font-size="13" letter-spacing="2">DATA QUALITY</text><text x="72" y="64" fill="#fff" font-family="Arial" font-size="23" font-weight="700">VERIFIED</text></g>
  </g>
  <text x="76" y="838" fill="#102c28" font-family="Arial" font-size="16" font-weight="700" letter-spacing="3">CARBONZERO</text><text x="1085" y="838" fill="#b7f34a" font-family="Arial" font-size="18" font-weight="700">↓18.4%</text>
</svg>
